<svg width="37" height="37" viewBox="0 0 37 37" fill="none" xmlns="http://www.w3.org/2000/svg">
<rect width="37" height="37" fill="white"/>
<path d="M6.16667 13.875C6.16667 9.51451 6.16667 7.33426 7.5213 5.97963C8.87593 4.625 11.0562 4.625 15.4167 4.625H21.5833C25.9438 4.625 28.1241 4.625 29.4787 5.97963C30.8333 7.33426 30.8333 9.51451 30.8333 13.875V24.4009C30.8333 28.5376 30.8333 30.606 29.5317 31.2386C28.2301 31.8713 26.6037 30.5934 23.3509 28.0376L22.3099 27.2197C20.4809 25.7826 19.5664 25.0641 18.5 25.0641C17.4336 25.0641 16.5191 25.7826 14.6901 27.2197L13.6491 28.0376C10.3963 30.5934 8.76991 31.8713 7.46829 31.2386C6.16667 30.606 6.16667 28.5376 6.16667 24.4009V13.875Z" stroke="#1A7FDC" stroke-width="2"/>
</svg>
