<svg width="11" height="11" viewBox="0 0 11 11" fill="none" xmlns="http://www.w3.org/2000/svg">
<path d="M3.89587 5.72919L7.10421 5.72919" stroke="white" stroke-linecap="round"/>
<path d="M3.89587 7.10419L5.72921 7.10419" stroke="white" stroke-linecap="round"/>
<path d="M2.52087 4.00419C2.52087 3.16411 2.52087 2.74407 2.68436 2.4232C2.82817 2.14096 3.05765 1.91149 3.33989 1.76768C3.66076 1.60419 4.0808 1.60419 4.92087 1.60419H5.19343C5.56031 1.60419 5.74376 1.60419 5.91639 1.64563C6.06944 1.68238 6.21576 1.74298 6.34997 1.82523C6.50134 1.91799 6.63106 2.0477 6.89048 2.30713L7.77626 3.19291C8.03569 3.45234 8.16541 3.58205 8.25817 3.73343C8.34041 3.86763 8.40102 4.01395 8.43776 4.16701C8.47921 4.33964 8.47921 4.52308 8.47921 4.88997V6.99585C8.47921 7.83593 8.47921 8.25597 8.31572 8.57684C8.17191 8.85908 7.94244 9.08855 7.66019 9.23236C7.33933 9.39585 6.91929 9.39585 6.07921 9.39585H4.92088C4.0808 9.39585 3.66076 9.39585 3.33989 9.23236C3.05765 9.08855 2.82817 8.85908 2.68436 8.57684C2.52087 8.25597 2.52087 7.83593 2.52087 6.99585V4.00419Z" stroke="white"/>
<path d="M5.72913 1.60419V1.95419C5.72913 2.79427 5.72913 3.21431 5.89262 3.53517C6.03643 3.81742 6.2659 4.04689 6.54814 4.1907C6.86901 4.35419 7.28905 4.35419 8.12913 4.35419H8.47913" stroke="white"/>
</svg>
