<svg width="43" height="43" viewBox="0 0 43 43" fill="none" xmlns="http://www.w3.org/2000/svg">
<path d="M8.95833 22.861C8.95833 20.4283 8.95833 19.212 9.45007 18.1428C9.94181 17.0737 10.8653 16.2821 12.7123 14.699L14.504 13.1633C17.8424 10.3017 19.5117 8.87097 21.5 8.87097C23.4883 8.87097 25.1576 10.3017 28.496 13.1633L30.2877 14.699C32.1347 16.2821 33.0582 17.0737 33.5499 18.1428C34.0417 19.212 34.0417 20.4283 34.0417 22.861V30.4583C34.0417 33.8367 34.0417 35.5259 32.9921 36.5755C31.9426 37.625 30.2534 37.625 26.875 37.625H16.125C12.7466 37.625 11.0574 37.625 10.0079 36.5755C8.95833 35.5259 8.95833 33.8367 8.95833 30.4583V22.861Z" stroke="#1A7FDC" stroke-width="2"/>
<path d="M25.9792 37.625V27.875C25.9792 27.3227 25.5314 26.875 24.9792 26.875H18.0208C17.4685 26.875 17.0208 27.3227 17.0208 27.875V37.625" stroke="#1A7FDC" stroke-width="2" stroke-linecap="round" stroke-linejoin="round"/>
</svg>
