<svg width="39" height="39" viewBox="0 0 39 39" fill="none" xmlns="http://www.w3.org/2000/svg">
<path d="M31.4046 9.38879L32.236 8.83322L32.236 8.83322L31.4046 9.38879ZM31.4046 26.3612L32.236 26.9168H32.236L31.4046 26.3612ZM29.6112 28.1546L30.1668 28.986V28.986L29.6112 28.1546ZM22.75 29.2478L22.7456 28.2478C22.1951 28.2502 21.75 28.6972 21.75 29.2478H22.75ZM22.75 29.25L23.6444 29.6972C23.7139 29.5584 23.75 29.4052 23.75 29.25H22.75ZM16.25 29.25H15.25C15.25 29.4052 15.2861 29.5584 15.3556 29.6972L16.25 29.25ZM16.25 29.2478H17.25C17.25 28.6972 16.8049 28.2502 16.2544 28.2478L16.25 29.2478ZM9.38879 28.1546L8.83322 28.986L8.83322 28.986L9.38879 28.1546ZM7.59545 26.3612L6.76398 26.9168H6.76398L7.59545 26.3612ZM7.59545 9.38879L8.42692 9.94436L8.42692 9.94436L7.59545 9.38879ZM9.38879 7.59545L9.94436 8.42692L9.94436 8.42692L9.38879 7.59545ZM29.6112 7.59545L30.1668 6.76398V6.76398L29.6112 7.59545ZM33.5 17.875C33.5 15.6136 33.5012 13.8422 33.3579 12.4338C33.213 11.0087 32.9118 9.84465 32.236 8.83322L30.5731 9.94436C30.9927 10.5724 31.2393 11.3692 31.3682 12.6362C31.4988 13.9199 31.5 15.5719 31.5 17.875H33.5ZM32.236 26.9168C32.9118 25.9054 33.213 24.7413 33.3579 23.3162C33.5012 21.9078 33.5 20.1364 33.5 17.875H31.5C31.5 20.1781 31.4988 21.8301 31.3682 23.1138C31.2393 24.3808 30.9927 25.1776 30.5731 25.8056L32.236 26.9168ZM30.1668 28.986C30.9857 28.4388 31.6888 27.7357 32.236 26.9168L30.5731 25.8056C30.1718 26.4062 29.6562 26.9218 29.0556 27.3231L30.1668 28.986ZM22.7544 30.2478C24.5027 30.2402 25.9226 30.207 27.0953 30.0449C28.2841 29.8806 29.2834 29.5763 30.1668 28.986L29.0556 27.3231C28.5069 27.6898 27.8287 27.9245 26.8214 28.0637C25.7981 28.2052 24.5035 28.2401 22.7456 28.2478L22.7544 30.2478ZM23.75 29.25V29.2478H21.75V29.25H23.75ZM21.2889 34.4084L23.6444 29.6972L21.8556 28.8028L19.5 33.5139L21.2889 34.4084ZM17.7111 34.4084C18.4482 35.8825 20.5518 35.8825 21.2889 34.4084L19.5 33.5139L19.5 33.5139L17.7111 34.4084ZM15.3556 29.6972L17.7111 34.4084L19.5 33.5139L17.1444 28.8028L15.3556 29.6972ZM15.25 29.2478V29.25H17.25V29.2478H15.25ZM8.83322 28.986C9.71664 29.5763 10.7159 29.8806 11.9047 30.0449C13.0774 30.207 14.4973 30.2402 16.2456 30.2478L16.2544 28.2478C14.4965 28.2401 13.2019 28.2052 12.1785 28.0637C11.1713 27.9245 10.4931 27.6898 9.94436 27.3231L8.83322 28.986ZM6.76398 26.9168C7.31117 27.7357 8.0143 28.4388 8.83322 28.986L9.94436 27.3231C9.34382 26.9218 8.82819 26.4062 8.42692 25.8056L6.76398 26.9168ZM5.5 17.875C5.5 20.1364 5.49879 21.9078 5.64207 23.3162C5.78704 24.7413 6.08817 25.9054 6.76398 26.9168L8.42692 25.8056C8.00728 25.1776 7.76068 24.3808 7.6318 23.1138C7.50121 21.8301 7.5 20.1781 7.5 17.875H5.5ZM6.76398 8.83322C6.08817 9.84465 5.78704 11.0087 5.64207 12.4338C5.49879 13.8422 5.5 15.6136 5.5 17.875H7.5C7.5 15.5719 7.50121 13.9199 7.6318 12.6362C7.76068 11.3692 8.00728 10.5724 8.42692 9.94436L6.76398 8.83322ZM8.83322 6.76398C8.0143 7.31117 7.31117 8.0143 6.76398 8.83322L8.42692 9.94436C8.82819 9.34382 9.34382 8.82819 9.94436 8.42692L8.83322 6.76398ZM17.875 5.5C15.6136 5.5 13.8422 5.49879 12.4338 5.64207C11.0087 5.78704 9.84465 6.08817 8.83322 6.76398L9.94436 8.42692C10.5724 8.00728 11.3692 7.76068 12.6362 7.6318C13.9199 7.50121 15.5719 7.5 17.875 7.5V5.5ZM21.125 5.5H17.875V7.5H21.125V5.5ZM30.1668 6.76398C29.1554 6.08817 27.9913 5.78704 26.5662 5.64207C25.1578 5.49879 23.3864 5.5 21.125 5.5V7.5C23.4281 7.5 25.0801 7.50121 26.3638 7.6318C27.6308 7.76068 28.4276 8.00728 29.0556 8.42692L30.1668 6.76398ZM32.236 8.83322C31.6888 8.0143 30.9857 7.31117 30.1668 6.76398L29.0556 8.42692C29.6562 8.82819 30.1718 9.34382 30.5731 9.94436L32.236 8.83322Z" fill="#333333"/>
<circle cx="26" cy="17.875" r="1.625" fill="#333333"/>
<circle cx="19.5" cy="17.875" r="1.625" fill="#333333"/>
<circle cx="13" cy="17.875" r="1.625" fill="#333333"/>
</svg>
