<svg width="35" height="35" viewBox="0 0 35 35" fill="none" xmlns="http://www.w3.org/2000/svg">
<path d="M20.5968 4.71765H19.5968V4.76752L19.6017 4.81715L20.5968 4.71765ZM20.5968 4.71763H21.5968V4.66775L21.5918 4.61812L20.5968 4.71763ZM20.6532 5.28199L19.6582 5.38149L19.6582 5.38149L20.6532 5.28199ZM23.9097 6.63089L23.2765 5.85694V5.85694L23.9097 6.63089ZM24.3487 6.27177L24.9819 7.04573L24.9819 7.04573L24.3487 6.27177ZM25.7321 5.4739L25.782 4.47514L25.7321 5.4739ZM27.0294 6.40547L26.3223 7.11258L27.0294 6.40547ZM28.5945 7.97057L27.8874 8.67768L28.5945 7.97057ZM29.526 9.26779L30.5248 9.21798V9.21797L29.526 9.26779ZM28.7282 10.6513L29.5021 11.2845L28.7282 10.6513ZM28.369 11.0902L27.595 10.457V10.457L28.369 11.0902ZM29.7179 14.3468L29.6184 15.3418L29.7179 14.3468ZM30.2823 14.4032L30.3818 13.4082L30.2823 14.4032ZM31.8248 14.8173L32.5662 14.1463L32.5662 14.1463L31.8248 14.8173ZM31.8248 20.1827L32.5662 20.8537L32.5662 20.8537L31.8248 20.1827ZM30.2824 20.5968V21.5968H30.3322L30.3819 21.5918L30.2824 20.5968ZM30.2823 20.5968V19.5968H30.2325L30.1828 19.6017L30.2823 20.5968ZM29.7185 20.6531L29.619 19.6581L29.619 19.6581L29.7185 20.6531ZM28.3696 23.9097L29.1435 23.2765L28.3696 23.9097ZM28.7282 24.3481L29.5022 23.7148L28.7282 24.3481ZM28.5945 27.0288L29.3016 27.7359L28.5945 27.0288ZM27.0294 28.5939L26.3223 27.8868L26.3223 27.8868L27.0294 28.5939ZM25.7322 29.5254L25.782 30.5242H25.782L25.7322 29.5254ZM24.3487 28.7276L23.7155 29.5015H23.7155L24.3487 28.7276ZM23.9098 28.3684L24.5431 27.5945V27.5945L23.9098 28.3684ZM21.4511 27.0381L21.0684 26.1142H21.0684L21.4511 27.0381ZM20.6533 29.7173L19.6582 29.6178L19.6582 29.6178L20.6533 29.7173ZM20.5968 30.2823L19.6017 30.1828L19.5968 30.2325V30.2823H20.5968ZM20.5968 30.2823L21.5918 30.3819L21.5968 30.3322V30.2823H20.5968ZM20.1827 31.8248L20.8537 32.5662L20.8537 32.5662L20.1827 31.8248ZM14.8173 31.8248L14.1463 32.5662L14.1463 32.5662L14.8173 31.8248ZM14.4032 30.2823L13.4082 30.3818L14.4032 30.2823ZM14.3468 29.7179L13.3518 29.8174L14.3468 29.7179ZM11.0902 28.369L10.457 27.595H10.457L11.0902 28.369ZM10.6512 28.7282L11.2844 29.5022L10.6512 28.7282ZM7.97051 28.5945L8.67762 27.8874L8.67762 27.8874L7.97051 28.5945ZM6.40542 27.0294L7.11252 26.3223L6.40542 27.0294ZM5.47384 25.7322L4.47508 25.782L5.47384 25.7322ZM6.27171 24.3487L7.04567 24.982L7.04567 24.982L6.27171 24.3487ZM6.63089 23.9097L5.85694 23.2765L5.85693 23.2765L6.63089 23.9097ZM7.96127 21.451L7.03739 21.8337H7.03739L7.96127 21.451ZM5.28198 20.6532L5.38149 19.6582H5.38149L5.28198 20.6532ZM4.71766 20.5968L4.81716 19.6017L4.76753 19.5968H4.71766V20.5968ZM4.71764 20.5968L4.61813 21.5918L4.66776 21.5968H4.71764V20.5968ZM3.17521 20.1827L3.91666 19.5117H3.91666L3.17521 20.1827ZM2.91666 18.6067H3.91666H2.91666ZM2.91666 16.3933H3.91666H2.91666ZM3.17521 14.8173L2.43376 14.1463L2.43376 14.1463L3.17521 14.8173ZM4.71766 14.4032L4.81716 15.3983H4.81716L4.71766 14.4032ZM5.28253 14.3467L5.18303 13.3517H5.18303L5.28253 14.3467ZM6.63144 11.0902L7.4054 10.4569L6.63144 11.0902ZM6.27178 10.6506L5.49782 11.2838H5.49782L6.27178 10.6506ZM6.40548 7.96991L5.69838 7.26281L6.40548 7.96991ZM7.97058 6.40481L7.26347 5.69771V5.69771L7.97058 6.40481ZM7.97058 6.40481L7.26348 5.69771L7.26347 5.69771L7.97058 6.40481ZM9.2678 5.47324L9.21798 4.47448L9.2678 5.47324ZM10.6513 6.27111L10.018 7.04507L10.018 7.04507L10.6513 6.27111ZM11.0903 6.63032L11.7235 5.85637V5.85637L11.0903 6.63032ZM14.3469 5.28142L13.3518 5.18191V5.18191L14.3469 5.28142ZM14.4032 4.71765L15.3983 4.81715V4.81715L14.4032 4.71765ZM14.8173 3.1752L14.1463 2.43375L14.1463 2.43375L14.8173 3.1752ZM20.1827 3.1752L19.5117 3.91666L20.1827 3.1752ZM21.5968 4.71765V4.71763H19.5968V4.71765H21.5968ZM21.6482 5.18248L21.5918 4.61815L19.6017 4.81715L19.6582 5.38149L21.6482 5.18248ZM21.8337 7.0374C22.0076 7.10942 21.9631 7.25104 21.8759 6.90437C21.7883 6.55628 21.7333 6.03305 21.6482 5.18248L19.6582 5.38149C19.7365 6.16445 19.804 6.86638 19.9363 7.39231C20.069 7.91966 20.3417 8.58415 21.0684 8.88516L21.8337 7.0374ZM23.2765 5.85694C22.6149 6.39824 22.2061 6.72933 21.898 6.91354C21.5912 7.097 21.6598 6.96537 21.8337 7.0374L21.0684 8.88516C21.7951 9.18617 22.4578 8.90913 22.9244 8.63005C23.3899 8.35172 23.934 7.90313 24.543 7.40485L23.2765 5.85694ZM23.7154 5.49782L23.2765 5.85694L24.543 7.40485L24.9819 7.04573L23.7154 5.49782ZM25.782 4.47514C25.3072 4.45146 24.9228 4.62194 24.6166 4.81282C24.3347 4.9886 24.0276 5.24239 23.7154 5.49782L24.9819 7.04573C25.3355 6.75645 25.5277 6.6017 25.6749 6.50992C25.7978 6.43325 25.7723 6.47714 25.6823 6.47266L25.782 4.47514ZM27.7365 5.69837C27.4512 5.41314 27.1709 5.13005 26.9079 4.9271C26.6223 4.7067 26.2567 4.49882 25.782 4.47514L25.6823 6.47266C25.5924 6.46817 25.5713 6.42195 25.6861 6.51048C25.8234 6.61645 25.9992 6.78955 26.3223 7.11258L27.7365 5.69837ZM29.3016 7.26346L27.7365 5.69837L26.3223 7.11258L27.8874 8.67768L29.3016 7.26346ZM30.5248 9.21797C30.5011 8.74321 30.2932 8.37765 30.0728 8.09204C29.8699 7.82903 29.5868 7.54869 29.3016 7.26346L27.8874 8.67768C28.2104 9.00071 28.3835 9.17655 28.4895 9.31388C28.578 9.42861 28.5318 9.40753 28.5273 9.31761L30.5248 9.21797ZM29.5021 11.2845C29.7575 10.9723 30.0113 10.6652 30.1871 10.3833C30.378 10.0772 30.5485 9.69273 30.5248 9.21798L28.5273 9.3176C28.5228 9.22768 28.5667 9.2021 28.49 9.32507C28.3982 9.47226 28.2435 9.66445 27.9542 10.018L29.5021 11.2845ZM29.143 11.7235L29.5021 11.2845L27.9542 10.018L27.595 10.457L29.143 11.7235ZM27.9625 13.1663C28.0345 13.3401 27.9029 13.4088 28.0864 13.102C28.2706 12.7939 28.6017 12.3851 29.143 11.7235L27.595 10.457C27.0968 11.066 26.6482 11.6101 26.3698 12.0755C26.0908 12.5422 25.8137 13.2049 26.1147 13.9316L27.9625 13.1663ZM29.8174 13.3517C28.9668 13.2667 28.4436 13.2117 28.0955 13.1241C27.7489 13.0369 27.8905 12.9924 27.9625 13.1663L26.1147 13.9316C26.4158 14.6583 27.0802 14.931 27.6076 15.0637C28.1335 15.196 28.8354 15.2635 29.6184 15.3418L29.8174 13.3517ZM30.3818 13.4082L29.8174 13.3517L29.6184 15.3418L30.1828 15.3983L30.3818 13.4082ZM32.5662 14.1463C32.2473 13.7939 31.8549 13.6426 31.5035 13.5611C31.1798 13.486 30.7832 13.4483 30.3818 13.4082L30.1828 15.3983C30.6374 15.4437 30.8827 15.4702 31.0517 15.5094C31.1929 15.5421 31.1437 15.5551 31.0833 15.4883L32.5662 14.1463ZM33.0833 16.3933C33.0833 15.9899 33.0853 15.5915 33.0428 15.262C32.9967 14.9042 32.8852 14.4987 32.5662 14.1463L31.0833 15.4883C31.0229 15.4216 31.0407 15.374 31.0592 15.5177C31.0814 15.6897 31.0833 15.9365 31.0833 16.3933H33.0833ZM33.0833 18.6067V16.3933H31.0833V18.6067H33.0833ZM32.5662 20.8537C32.8852 20.5012 32.9967 20.0957 33.0428 19.7379C33.0853 19.4085 33.0833 19.01 33.0833 18.6067H31.0833C31.0833 19.0635 31.0814 19.3103 31.0592 19.4823C31.0407 19.626 31.0229 19.5784 31.0833 19.5117L32.5662 20.8537ZM30.3819 21.5918C30.7832 21.5517 31.1798 21.5139 31.5035 21.4389C31.8549 21.3574 32.2473 21.2061 32.5662 20.8537L31.0833 19.5117C31.1437 19.4449 31.1929 19.4579 31.0517 19.4906C30.8827 19.5298 30.6374 19.5563 30.1828 19.6017L30.3819 21.5918ZM30.2823 21.5968H30.2824V19.5968H30.2823V21.5968ZM29.818 21.6482L30.3818 21.5918L30.1828 19.6017L29.619 19.6581L29.818 21.6482ZM27.9631 21.8337C27.891 22.0076 27.7494 21.963 28.0961 21.8758C28.4442 21.7882 28.9674 21.7332 29.818 21.6482L29.619 19.6581C28.836 19.7364 28.1341 19.8039 27.6081 19.9362C27.0808 20.0689 26.4163 20.3416 26.1153 21.0683L27.9631 21.8337ZM29.1435 23.2765C28.6022 22.6149 28.2711 22.206 28.0869 21.8979C27.9034 21.5911 28.0351 21.6598 27.9631 21.8337L26.1153 21.0683C25.8143 21.795 26.0913 22.4577 26.3704 22.9244C26.6487 23.3898 27.0973 23.9339 27.5956 24.5429L29.1435 23.2765ZM29.5022 23.7148L29.1435 23.2765L27.5956 24.5429L27.9543 24.9813L29.5022 23.7148ZM30.5249 25.7814C30.5485 25.3066 30.3781 24.9222 30.1872 24.616C30.0114 24.3341 29.7576 24.027 29.5022 23.7148L27.9543 24.9813C28.2436 25.3349 28.3983 25.5271 28.4901 25.6743C28.5668 25.7972 28.5229 25.7717 28.5273 25.6817L30.5249 25.7814ZM29.3016 27.7359C29.5869 27.4506 29.87 27.1703 30.0729 26.9073C30.2933 26.6217 30.5012 26.2561 30.5249 25.7814L28.5273 25.6817C28.5318 25.5918 28.5781 25.5707 28.4895 25.6855C28.3835 25.8228 28.2105 25.9986 27.8874 26.3217L29.3016 27.7359ZM27.7365 29.301L29.3016 27.7359L27.8874 26.3217L26.3223 27.8868L27.7365 29.301ZM25.782 30.5242C26.2568 30.5005 26.6224 30.2926 26.908 30.0722C27.171 29.8693 27.4513 29.5862 27.7365 29.301L26.3223 27.8868C25.9993 28.2098 25.8234 28.3829 25.6861 28.4889C25.5714 28.5774 25.5925 28.5312 25.6824 28.5267L25.782 30.5242ZM23.7155 29.5015C24.0277 29.7569 24.3348 30.0107 24.6167 30.1865C24.9228 30.3774 25.3073 30.5479 25.782 30.5242L25.6824 28.5267C25.7723 28.5222 25.7979 28.5661 25.6749 28.4894C25.5277 28.3976 25.3355 28.2429 24.982 27.9536L23.7155 29.5015ZM23.2766 29.1424L23.7155 29.5015L24.982 27.9536L24.5431 27.5945L23.2766 29.1424ZM21.8338 27.9619C21.6599 28.034 21.5913 27.9023 21.8981 28.0858C22.2061 28.27 22.615 28.6011 23.2766 29.1424L24.5431 27.5945C23.934 27.0962 23.39 26.6476 22.9245 26.3693C22.4578 26.0902 21.7951 25.8132 21.0684 26.1142L21.8338 27.9619ZM21.6483 29.8168C21.7334 28.9663 21.7883 28.4431 21.8759 28.095C21.9631 27.7483 22.0077 27.8899 21.8338 27.9619L21.0684 26.1142C20.3417 26.4152 20.069 27.0797 19.9364 27.607C19.804 28.1329 19.7365 28.8349 19.6582 29.6178L21.6483 29.8168ZM21.5918 30.3818L21.6483 29.8168L19.6582 29.6178L19.6017 30.1828L21.5918 30.3818ZM21.5968 30.2823V30.2823H19.5968V30.2823H21.5968ZM20.8537 32.5662C21.2061 32.2473 21.3574 31.8549 21.4389 31.5035C21.514 31.1798 21.5517 30.7832 21.5918 30.3819L19.6017 30.1828C19.5563 30.6374 19.5298 30.8827 19.4906 31.0517C19.4579 31.1929 19.4449 31.1437 19.5117 31.0833L20.8537 32.5662ZM18.6067 33.0833C19.0101 33.0833 19.4085 33.0853 19.7379 33.0428C20.0957 32.9967 20.5012 32.8852 20.8537 32.5662L19.5117 31.0833C19.5784 31.0229 19.626 31.0407 19.4823 31.0592C19.3103 31.0814 19.0635 31.0833 18.6067 31.0833V33.0833ZM16.3933 33.0833H18.6067V31.0833H16.3933V33.0833ZM14.1463 32.5662C14.4988 32.8852 14.9042 32.9967 15.262 33.0428C15.5915 33.0853 15.9899 33.0833 16.3933 33.0833V31.0833C15.9365 31.0833 15.6897 31.0814 15.5177 31.0592C15.374 31.0407 15.4216 31.0229 15.4883 31.0833L14.1463 32.5662ZM13.4082 30.3818C13.4483 30.7832 13.486 31.1798 13.5611 31.5034C13.6426 31.8549 13.7939 32.2473 14.1463 32.5662L15.4883 31.0833C15.5551 31.1437 15.5421 31.1929 15.5094 31.0517C15.4702 30.8827 15.4437 30.6374 15.3983 30.1828L13.4082 30.3818ZM13.3518 29.8174L13.4082 30.3818L15.3983 30.1828L15.3418 29.6184L13.3518 29.8174ZM13.1663 27.9625C12.9924 27.8905 13.0369 27.7489 13.1241 28.0955C13.2117 28.4436 13.2667 28.9668 13.3518 29.8174L15.3418 29.6184C15.2635 28.8354 15.196 28.1335 15.0637 27.6076C14.931 27.0802 14.6583 26.4158 13.9316 26.1147L13.1663 27.9625ZM11.7235 29.143C12.3851 28.6017 12.7939 28.2706 13.102 28.0864C13.4088 27.9029 13.3401 28.0345 13.1663 27.9625L13.9316 26.1147C13.2049 25.8137 12.5422 26.0908 12.0755 26.3699C11.6101 26.6482 11.066 27.0968 10.457 27.595L11.7235 29.143ZM11.2844 29.5022L11.7235 29.143L10.457 27.595L10.018 27.9543L11.2844 29.5022ZM9.21792 30.5249C9.69267 30.5485 10.0771 30.3781 10.3832 30.1872C10.6651 30.0114 10.9722 29.7576 11.2844 29.5022L10.018 27.9543C9.66439 28.2435 9.4722 28.3983 9.325 28.4901C9.20204 28.5667 9.22762 28.5229 9.31754 28.5273L9.21792 30.5249ZM7.2634 29.3016C7.54863 29.5868 7.82897 29.8699 8.09198 30.0729C8.37759 30.2933 8.74316 30.5012 9.21792 30.5249L9.31754 28.5273C9.40746 28.5318 9.42855 28.578 9.31382 28.4895C9.1765 28.3835 9.00065 28.2104 8.67762 27.8874L7.2634 29.3016ZM5.69831 27.7365L7.26341 29.3016L8.67762 27.8874L7.11252 26.3223L5.69831 27.7365ZM4.47508 25.782C4.49876 26.2568 4.70665 26.6223 4.92704 26.908C5.12999 27.171 5.41309 27.4513 5.69831 27.7365L7.11252 26.3223C6.78949 25.9993 6.61639 25.8234 6.51042 25.6861C6.42189 25.5714 6.46811 25.5925 6.4726 25.6824L4.47508 25.782ZM5.49776 23.7155C5.24233 24.0277 4.98854 24.3348 4.81276 24.6167C4.62188 24.9228 4.4514 25.3073 4.47508 25.782L6.4726 25.6824C6.47708 25.7723 6.43319 25.7979 6.50986 25.6749C6.60164 25.5277 6.75639 25.3355 7.04567 24.982L5.49776 23.7155ZM5.85693 23.2765L5.49776 23.7155L7.04567 24.982L7.40485 24.543L5.85693 23.2765ZM7.03739 21.8337C6.96537 21.6598 7.097 21.5912 6.91354 21.898C6.72933 22.206 6.39824 22.6149 5.85694 23.2765L7.40485 24.543C7.90312 23.934 8.35172 23.3899 8.63005 22.9244C8.90913 22.4577 9.18616 21.7951 8.88515 21.0683L7.03739 21.8337ZM5.18248 21.6482C6.03305 21.7333 6.55628 21.7883 6.90436 21.8758C7.25103 21.9631 7.10942 22.0076 7.03739 21.8337L8.88515 21.0684C8.58414 20.3416 7.91965 20.0689 7.39231 19.9363C6.86638 19.804 6.16445 19.7364 5.38149 19.6582L5.18248 21.6482ZM4.61815 21.5918L5.18248 21.6482L5.38149 19.6582L4.81716 19.6017L4.61815 21.5918ZM4.71764 21.5968H4.71766V19.5968H4.71764V21.5968ZM2.43376 20.8537C2.75272 21.2061 3.1451 21.3574 3.49653 21.4389C3.82015 21.5139 4.21678 21.5517 4.61813 21.5918L4.81715 19.6017C4.36258 19.5563 4.11727 19.5298 3.94829 19.4906C3.80712 19.4579 3.85625 19.4449 3.91666 19.5117L2.43376 20.8537ZM1.91666 18.6067C1.91666 19.01 1.91472 19.4085 1.95719 19.7379C2.0033 20.0957 2.1148 20.5012 2.43376 20.8537L3.91666 19.5117C3.97708 19.5784 3.9593 19.626 3.94078 19.4823C3.91861 19.3103 3.91666 19.0635 3.91666 18.6067H1.91666ZM1.91666 16.3933L1.91666 18.6067H3.91666L3.91666 16.3933H1.91666ZM2.43376 14.1463C2.1148 14.4987 2.0033 14.9042 1.95719 15.262C1.91472 15.5915 1.91666 15.9899 1.91666 16.3933H3.91666C3.91666 15.9365 3.91861 15.6897 3.94078 15.5177C3.9593 15.374 3.97708 15.4216 3.91666 15.4883L2.43376 14.1463ZM4.61815 13.4082C4.21679 13.4483 3.82016 13.486 3.49654 13.5611C3.1451 13.6426 2.75272 13.7939 2.43376 14.1463L3.91666 15.4883C3.85625 15.5551 3.80712 15.5421 3.94829 15.5094C4.11727 15.4702 4.36259 15.4437 4.81716 15.3983L4.61815 13.4082ZM5.18303 13.3517L4.61815 13.4082L4.81716 15.3983L5.38204 15.3418L5.18303 13.3517ZM7.03794 13.1662C7.10997 12.9923 7.25158 13.0369 6.90491 13.1241C6.55683 13.2116 6.0336 13.2666 5.18303 13.3517L5.38204 15.3418C6.165 15.2635 6.86693 15.196 7.39286 15.0636C7.9202 14.931 8.58469 14.6583 8.8857 13.9316L7.03794 13.1662ZM5.85748 11.7234C6.39878 12.385 6.72987 12.7939 6.91409 13.1019C7.09755 13.4087 6.96592 13.3401 7.03794 13.1662L8.8857 13.9316C9.18671 13.2049 8.90968 12.5422 8.6306 12.0755C8.35226 11.61 7.90367 11.0659 7.4054 10.4569L5.85748 11.7234ZM5.49782 11.2838L5.85748 11.7234L7.4054 10.4569L7.04574 10.0174L5.49782 11.2838ZM4.47515 9.21731C4.45147 9.69207 4.62195 10.0765 4.81283 10.3826C4.9886 10.6645 5.2424 10.9717 5.49782 11.2838L7.04574 10.0174C6.75645 9.66379 6.60171 9.4716 6.50993 9.32441C6.43326 9.20144 6.47715 9.22702 6.47267 9.31694L4.47515 9.21731ZM5.69838 7.26281C5.41315 7.54803 5.13006 7.82837 4.92711 8.09138C4.70671 8.37699 4.49883 8.74256 4.47515 9.21731L6.47267 9.31694C6.46818 9.40686 6.42196 9.42795 6.51049 9.31322C6.61646 9.17589 6.78956 9.00005 7.11259 8.67702L5.69838 7.26281ZM7.26347 5.69771L5.69838 7.26281L7.11259 8.67702L8.67769 7.11192L7.26347 5.69771ZM7.26347 5.69771L7.26347 5.69771L8.67769 7.11192L8.67769 7.11192L7.26347 5.69771ZM9.21798 4.47448C8.74323 4.49816 8.37766 4.70604 8.09205 4.92644C7.82904 5.12939 7.5487 5.41248 7.26348 5.69771L8.67769 7.11192C9.00072 6.78889 9.17656 6.61579 9.31389 6.50982C9.42862 6.42129 9.40753 6.46751 9.31761 6.472L9.21798 4.47448ZM11.2845 5.49716C10.9723 5.24173 10.6652 4.98794 10.3833 4.81216C10.0772 4.62128 9.69274 4.4508 9.21798 4.47448L9.31761 6.472C9.22769 6.47648 9.20211 6.43259 9.32507 6.50926C9.47227 6.60104 9.66446 6.75578 10.018 7.04507L11.2845 5.49716ZM11.7235 5.85637L11.2845 5.49716L10.018 7.04507L10.4571 7.40428L11.7235 5.85637ZM13.1663 7.03683C13.3402 6.9648 13.4088 7.09643 13.102 6.91297C12.794 6.72876 12.3851 6.39767 11.7235 5.85637L10.4571 7.40428C11.0661 7.90256 11.6102 8.35115 12.0756 8.62948C12.5423 8.90856 13.205 9.1856 13.9317 8.88458L13.1663 7.03683ZM13.3518 5.18191C13.2668 6.03249 13.2118 6.55571 13.1242 6.90379C13.037 7.25046 12.9924 7.10885 13.1663 7.03683L13.9317 8.88458C14.6584 8.58357 14.9311 7.91909 15.0638 7.39174C15.1961 6.86581 15.2636 6.16388 15.3419 5.38092L13.3518 5.18191ZM13.4082 4.61814L13.3518 5.18191L15.3419 5.38092L15.3983 4.81715L13.4082 4.61814ZM14.1463 2.43375C13.7939 2.75271 13.6426 3.1451 13.5611 3.49653C13.486 3.82015 13.4483 4.21678 13.4082 4.61814L15.3983 4.81715C15.4437 4.36258 15.4702 4.11726 15.5094 3.94828C15.5421 3.80712 15.5551 3.85624 15.4883 3.91666L14.1463 2.43375ZM16.3933 1.91666C15.9899 1.91666 15.5915 1.91471 15.262 1.95718C14.9042 2.00329 14.4988 2.11479 14.1463 2.43375L15.4883 3.91666C15.4216 3.97707 15.374 3.9593 15.5177 3.94077C15.6897 3.9186 15.9365 3.91666 16.3933 3.91666V1.91666ZM18.6067 1.91666H16.3933V3.91666H18.6067V1.91666ZM20.8537 2.43375C20.5012 2.11479 20.0957 2.00329 19.7379 1.95718C19.4085 1.91471 19.0101 1.91666 18.6067 1.91666V3.91666C19.0635 3.91666 19.3103 3.9186 19.4823 3.94077C19.626 3.9593 19.5784 3.97707 19.5117 3.91666L20.8537 2.43375ZM21.5918 4.61812C21.5517 4.21677 21.514 3.82014 21.4389 3.49652C21.3574 3.14509 21.2061 2.75271 20.8537 2.43375L19.5117 3.91666C19.4449 3.85624 19.4579 3.80712 19.4906 3.94828C19.5298 4.11726 19.5563 4.36257 19.6017 4.81714L21.5918 4.61812ZM22.3333 17.5C22.3333 20.1694 20.1694 22.3333 17.5 22.3333V24.3333C21.2739 24.3333 24.3333 21.2739 24.3333 17.5H22.3333ZM17.5 12.6667C20.1694 12.6667 22.3333 14.8306 22.3333 17.5H24.3333C24.3333 13.726 21.2739 10.6667 17.5 10.6667V12.6667ZM12.6667 17.5C12.6667 14.8306 14.8306 12.6667 17.5 12.6667V10.6667C13.7261 10.6667 10.6667 13.726 10.6667 17.5H12.6667ZM17.5 22.3333C14.8306 22.3333 12.6667 20.1694 12.6667 17.5H10.6667C10.6667 21.2739 13.7261 24.3333 17.5 24.3333V22.3333Z" fill="#333333"/>
</svg>
