<svg width="134" height="23" viewBox="0 0 134 23" fill="none" xmlns="http://www.w3.org/2000/svg">
<path d="M12.5 0.999999H17.3V22H13.7L5.6 10.6V22H0.8V0.999999H4.4L12.5 12.4V0.999999ZM34.2477 22L33.1977 18.7H25.3977L24.3477 22H19.0977L26.2377 0.999999H32.3577L39.4977 22H34.2477ZM26.8377 14.2H31.7577L29.2977 6.49L26.8377 14.2ZM45.1271 22L38.2871 0.999999H43.5371L48.1871 16.45L52.8371 0.999999H58.0871L51.2471 22H45.1271Z" fill="#1A7FDC"/>
<path d="M70.4218 22.33C67.2618 22.33 64.6518 21.29 62.5918 19.21C60.5318 17.11 59.5018 14.54 59.5018 11.5C59.5018 8.46 60.5318 5.9 62.5918 3.82C64.6518 1.72 67.2618 0.669999 70.4218 0.669999C72.3418 0.669999 74.1018 1.13 75.7018 2.05C77.3018 2.95 78.5418 4.17 79.4218 5.71L78.0118 6.52C77.3118 5.22 76.2818 4.18 74.9218 3.4C73.5618 2.6 72.0618 2.2 70.4218 2.2C67.7018 2.2 65.4618 3.1 63.7018 4.9C61.9618 6.68 61.0918 8.88 61.0918 11.5C61.0918 14.12 61.9618 16.33 63.7018 18.13C65.4618 19.91 67.7018 20.8 70.4218 20.8C72.0618 20.8 73.5718 20.4 74.9518 19.6C76.3318 18.8 77.3718 17.73 78.0718 16.39L79.4818 17.2C78.6218 18.76 77.3818 20.01 75.7618 20.95C74.1418 21.87 72.3618 22.33 70.4218 22.33ZM97.0681 22L95.0281 16.66H84.4981L82.4581 22H80.7781L88.9381 0.999999H90.6181L98.7481 22H97.0681ZM85.0981 15.16H94.4581L89.7781 2.95L85.0981 15.16ZM103.395 20.5H113.295V22H101.805V0.999999H103.395V20.5ZM124.826 22.33C121.666 22.33 119.056 21.29 116.996 19.21C114.936 17.11 113.906 14.54 113.906 11.5C113.906 8.46 114.936 5.9 116.996 3.82C119.056 1.72 121.666 0.669999 124.826 0.669999C126.746 0.669999 128.506 1.13 130.106 2.05C131.706 2.95 132.946 4.17 133.826 5.71L132.416 6.52C131.716 5.22 130.686 4.18 129.326 3.4C127.966 2.6 126.466 2.2 124.826 2.2C122.106 2.2 119.866 3.1 118.106 4.9C116.366 6.68 115.496 8.88 115.496 11.5C115.496 14.12 116.366 16.33 118.106 18.13C119.866 19.91 122.106 20.8 124.826 20.8C126.466 20.8 127.976 20.4 129.356 19.6C130.736 18.8 131.776 17.73 132.476 16.39L133.886 17.2C133.026 18.76 131.786 20.01 130.166 20.95C128.546 21.87 126.766 22.33 124.826 22.33Z" fill="black"/>
</svg>
