<svg width="20" height="20" viewBox="0 0 20 20" fill="none" xmlns="http://www.w3.org/2000/svg">
<circle cx="10" cy="10" r="9" stroke="white" stroke-width="2"/>
<path d="M9.14823 11.327C9.14823 11.0703 9.18856 10.843 9.26923 10.645C9.35723 10.447 9.46356 10.271 9.58823 10.117C9.72023 9.963 9.85956 9.82 10.0062 9.688C10.1529 9.556 10.2886 9.43133 10.4132 9.314C10.5452 9.18933 10.6516 9.061 10.7322 8.929C10.8202 8.797 10.8642 8.65033 10.8642 8.489C10.8642 8.225 10.7542 8.01233 10.5342 7.851C10.3216 7.68967 10.0356 7.609 9.67623 7.609C9.33156 7.609 9.02356 7.68233 8.75223 7.829C8.4809 7.96833 8.25723 8.16633 8.08123 8.423L6.75023 7.642C7.04356 7.19467 7.45056 6.839 7.97123 6.575C8.4919 6.30367 9.12256 6.168 9.86323 6.168C10.4132 6.168 10.8972 6.24867 11.3152 6.41C11.7332 6.564 12.0596 6.79133 12.2942 7.092C12.5362 7.39267 12.6572 7.763 12.6572 8.203C12.6572 8.489 12.6132 8.742 12.5252 8.962C12.4372 9.182 12.3236 9.37267 12.1842 9.534C12.0449 9.69533 11.8946 9.84567 11.7332 9.985C11.5792 10.1243 11.4326 10.26 11.2932 10.392C11.1539 10.524 11.0366 10.6633 10.9412 10.81C10.8532 10.9567 10.8092 11.129 10.8092 11.327H9.14823ZM9.98423 14.088C9.67623 14.088 9.42323 13.989 9.22523 13.791C9.02723 13.593 8.92823 13.3583 8.92823 13.087C8.92823 12.8083 9.02723 12.5773 9.22523 12.394C9.42323 12.2033 9.67623 12.108 9.98423 12.108C10.2996 12.108 10.5526 12.2033 10.7432 12.394C10.9412 12.5773 11.0402 12.8083 11.0402 13.087C11.0402 13.3583 10.9412 13.593 10.7432 13.791C10.5526 13.989 10.2996 14.088 9.98423 14.088Z" fill="white"/>
</svg>
